<svg width="68" height="21" viewBox="0 0 68 21" fill="none" xmlns="http://www.w3.org/2000/svg">
<path fill-rule="evenodd" clip-rule="evenodd" d="M13.3636 20.0455V0H10.0705L6.72954 4.29545L3.34091 0H0V20.0455H3.34091V5.775L4.43864 7.20682L6.58636 9.975L6.72954 10.0705L6.825 9.975L8.97273 7.20682L10.0705 5.82273V20.0455H13.3636ZM8.44787 9.97501L8.35241 10.0705H8.30469L8.44787 9.97501ZM26.6672 17.0863C28.8388 17.0863 30.7941 16.0975 32.0903 14.5368L36.6856 11.1627C37.221 14.5026 40.1124 17.0863 43.6398 17.0863C47.5038 17.0863 50.6829 13.956 50.6829 10.0431C50.634 6.17919 47.5038 3 43.6398 3C43.4243 3 43.2109 3.00974 43 3.02882V3H37V6.50224L33.6287 8.97763C33.1088 5.61161 30.1692 3 26.6672 3C22.8032 3 19.624 6.13028 19.624 10.0431C19.624 13.9071 22.7543 17.0863 26.6672 17.0863ZM42.5608 7C41.318 7.44032 40.4117 8.62089 40.4117 10.0431C40.4117 11.8039 41.8301 13.2712 43.6398 13.2712C45.4006 13.2712 46.8679 11.8039 46.8679 10.0431C46.8679 8.28235 45.4006 6.81503 43.6398 6.81503C43.4213 6.81503 43.2073 6.83688 43 6.87862V7H42.5608ZM26.6672 13.2712C24.8575 13.2712 23.4391 11.8039 23.4391 10.0431C23.4391 8.23344 24.9064 6.81503 26.6672 6.81503C28.4279 6.81503 29.8953 8.28235 29.8953 10.0431C29.8953 11.8039 28.4279 13.2712 26.6672 13.2712ZM67.5977 0.238647V20.2841H64.2568V9.87956L61.4409 7.20683L59.3409 5.15456V20.2841H56V0.238647H59.3409L63.2545 4.0091L64.2568 4.96365V0.238647H67.5977Z" fill="#0AD9C6"/>
</svg>
